<?xml version="1.0" encoding="utf-8"?>
<!-- Generator: Adobe Illustrator 23.0.5, SVG Export Plug-In . SVG Version: 6.00 Build 0)  -->
<svg version="1.1" id="Layer_1" xmlns="http://www.w3.org/2000/svg" xmlns:xlink="http://www.w3.org/1999/xlink" x="0px" y="0px"
	 viewBox="0 0 18 18" style="enable-background:new 0 0 18 18;" xml:space="preserve">
<style type="text/css">
	.st0{fill:#FFFFFF;}
</style>
<g>
	<path class="st0" d="M9,16.7c-2,0-3.9-0.8-5.3-2.2c-1.4-1.4-2.2-3.3-2.2-5.3c0-2,0.8-3.9,2.2-5.3S7,1.7,9,1.7h0
		c2,0,3.9,0.8,5.3,2.2c1.4,1.4,2.2,3.3,2.2,5.3c0,2-0.8,3.9-2.2,5.3S11,16.7,9,16.7L9,16.7z M9,3.1c-3.3,0-6.1,2.7-6.1,6.1
		c0,1.6,0.6,3.1,1.8,4.3c1.2,1.2,2.7,1.8,4.3,1.8c0,0,0,0,0,0c1.6,0,3.1-0.6,4.3-1.8c1.2-1.2,1.8-2.7,1.8-4.3
		C15.1,5.8,12.3,3.1,9,3.1L9,3.1z"/>
	<path class="st0" d="M10.4,14.1c-0.2,0-0.5-0.1-0.7-0.5c-0.2-0.5-0.5-1-0.7-1.5l0,0l-0.1,0.1c-0.2,0.4-0.4,0.8-0.6,1.3
		c-0.1,0.2-0.3,0.6-0.8,0.6c-0.1,0-0.2,0-0.3-0.1c-0.2-0.1-0.4-0.2-0.4-0.4c-0.1-0.2-0.1-0.5,0.1-0.9c0.1-0.2,0.2-0.4,0.2-0.6
		c0.2-0.5,0.4-1,0.6-1.5c0.1-0.4,0.2-0.8,0.2-1.3C8,9.1,8,8.9,8,8.7c0-0.1,0-0.1-0.1-0.1c-0.3-0.1-0.7-0.2-1-0.3
		C6.6,8.2,6.3,8.1,6,8C5.2,7.8,5.3,7.2,5.4,7c0.1-0.4,0.4-0.6,0.7-0.6c0.1,0,0.3,0,0.4,0.1C7.3,6.9,8.1,7,8.9,7
		c0.8,0,1.7-0.2,2.5-0.5c0.1-0.1,0.3-0.1,0.4-0.1c0.4,0,0.6,0.2,0.7,0.6c0.1,0.5-0.1,0.8-0.6,1c-0.2,0.1-0.5,0.1-0.7,0.2
		c-0.4,0.1-0.8,0.2-1.1,0.3C10,8.6,9.9,8.6,9.9,8.9c0,1.1,0.4,2.1,0.8,3l0.1,0.3c0.1,0.2,0.2,0.5,0.3,0.7c0.2,0.5,0,0.9-0.4,1.1
		C10.6,14.1,10.5,14.1,10.4,14.1z"/>
	<path class="st0" d="M9,6.5c-0.7,0-1.3-0.6-1.3-1.3c0-0.3,0.1-0.7,0.4-0.9C8.3,4.1,8.7,4,9,4c0.7,0,1.3,0.6,1.3,1.3
		C10.3,6,9.7,6.5,9,6.5L9,6.5z"/>
</g>
</svg>
