<svg xmlns="http://www.w3.org/2000/svg" viewBox="0 0 315.99 229.81"><defs><style>.cls-1,.cls-2{fill:#bfd0ef;}.cls-1{fill-rule:evenodd;}</style></defs><g id="Layer_2" data-name="Layer 2"><g id="Layer_1-2" data-name="Layer 1"><path class="cls-1" d="M225.07,131.13c19.68,13.36,33.46,31.46,33.46,55.59v43.09H316V186.72C316,155.41,264.71,136.88,225.07,131.13Z"/><circle class="cls-2" cx="114.9" cy="57.45" r="57.45"/><path class="cls-1" d="M201.08,114.9a57.45,57.45,0,0,0,0-114.9A60,60,0,0,0,182,3.45a85.9,85.9,0,0,1,0,108A60,60,0,0,0,201.08,114.9Z"/><path class="cls-1" d="M114.9,129.27C76.55,129.27,0,148.51,0,186.72v43.09H229.81V186.72C229.81,148.51,153.25,129.27,114.9,129.27Z"/></g></g></svg>