<svg xmlns="http://www.w3.org/2000/svg" viewBox="0 0 148.41 152.57"><defs><style>.cls-1{fill:#bfd0ef;}</style></defs><g id="Layer_2" data-name="Layer 2"><g id="Layer_2-2" data-name="Layer 2"><path class="cls-1" d="M130.94,83.76a55.94,55.94,0,0,0,.48-7.47,45.51,45.51,0,0,0-.56-7.47L147,56.26a3.91,3.91,0,0,0,1-4.85L132.69,25A3.89,3.89,0,0,0,128,23.28l-19,7.63a56.1,56.1,0,0,0-12.87-7.47L93.28,3.26A3.85,3.85,0,0,0,89.46,0H59a3.77,3.77,0,0,0-3.74,3.26L52.35,23.44a57.35,57.35,0,0,0-12.87,7.47l-19-7.63A3.8,3.8,0,0,0,15.8,25L.62,51.41a3.62,3.62,0,0,0,1,4.85L17.7,68.82A47.38,47.38,0,0,0,17,76.29a46.36,46.36,0,0,0,.56,7.47L1.41,96.31a3.91,3.91,0,0,0-.95,4.85l15.26,26.38a3.88,3.88,0,0,0,4.69,1.75l19-7.63a56.1,56.1,0,0,0,12.87,7.47l2.86,20.18A3.91,3.91,0,0,0,59,152.57H89.46a3.71,3.71,0,0,0,3.74-3.26l2.86-20.18a54.46,54.46,0,0,0,12.87-7.47l19,7.63a3.79,3.79,0,0,0,4.69-1.75l15.26-26.38a3.69,3.69,0,0,0-1-4.85ZM74.2,102.53a28.91,28.91,0,1,1,28.91-28.91A29,29,0,0,1,74.2,102.53Z"/></g></g></svg>