<?xml version="1.0" encoding="utf-8"?>
<!-- Generator: Adobe Illustrator 23.0.5, SVG Export Plug-In . SVG Version: 6.00 Build 0)  -->
<svg version="1.1" id="Layer_1" xmlns="http://www.w3.org/2000/svg" xmlns:xlink="http://www.w3.org/1999/xlink" x="0px" y="0px"
	 viewBox="0 0 18 18" style="enable-background:new 0 0 18 18;" xml:space="preserve">
<style type="text/css">
	.st0{display:none;fill:none;}
	.st1{display:none;fill:#FFFFFF;}
	.st2{fill:#FFFFFF;}
</style>
<path class="st0" d="M0,0h18v18H0V0z"/>
<path class="st1" d="M3,3h12v9H3.9L3,12.9V3 M3,1.5C2.2,1.5,1.5,2.2,1.5,3l0,13.5l3-3H15c0.8,0,1.5-0.7,1.5-1.5V3
	c0-0.8-0.7-1.5-1.5-1.5H3z M4.5,9h6v1.5h-6V9z M4.5,6.8h9v1.5h-9V6.8z M4.5,4.5h9V6h-9V4.5z"/>
<g>
	<path class="st2" d="M15.2,7.4C15.1,7.4,15.1,7.4,15.2,7.4c-0.2-0.6-0.4-1.1-0.7-1.5c0,0,0-0.1,0-0.1c0.4-0.6,0.9-1.2,1.3-1.7
		c0,0,0-0.1,0.1-0.1c-0.6-0.6-1.2-1.2-1.8-1.8c0,0-0.1,0.1-0.1,0.1c-0.6,0.4-1.1,0.8-1.7,1.2c0,0-0.1,0-0.1,0
		c-0.5-0.3-0.9-0.5-1.5-0.6c0,0-0.1,0-0.1-0.1c-0.1-0.7-0.2-1.4-0.3-2.2c0,0,0,0,0-0.1c-0.8,0-1.7,0-2.5,0c0,0.1,0,0.2-0.1,0.4
		C7.6,1.6,7.5,2.2,7.4,2.9c0,0,0,0.1-0.1,0.1c-0.5,0.1-1,0.3-1.4,0.6c0,0-0.1,0-0.1,0C5.2,3.1,4.6,2.7,4,2.2c0,0,0,0-0.1,0
		C3.4,2.8,2.8,3.4,2.2,4c0,0,0,0,0,0c0.4,0.6,0.9,1.2,1.3,1.7c0,0,0,0.1,0,0.1C3.3,6.3,3.1,6.8,2.9,7.3c0,0,0,0.1-0.1,0.1
		C2.4,7.5,1.9,7.5,1.4,7.6c-0.3,0-0.6,0.1-0.8,0.1c0,0.8,0,1.7,0,2.5c0.7,0.1,1.5,0.2,2.2,0.3c0,0,0.1,0,0.1,0.1
		c0.1,0.5,0.3,1,0.6,1.4c0,0,0,0,0,0.1c-0.5,0.6-0.9,1.2-1.4,1.9c0.6,0.6,1.2,1.2,1.8,1.8c0.1-0.1,0.3-0.2,0.4-0.3
		c0.5-0.3,0.9-0.7,1.4-1c0,0,0.1,0,0.1,0c0.5,0.3,0.9,0.5,1.4,0.6c0.1,0,0.1,0,0.1,0.1c0.1,0.4,0.1,0.7,0.2,1.1
		c0.1,0.4,0.1,0.8,0.2,1.1c0.8,0,1.7,0,2.5,0c0.1-0.7,0.2-1.5,0.3-2.2c0,0,0-0.1,0.1-0.1c0.5-0.1,1-0.3,1.4-0.6c0,0,0.1,0,0.1,0
		c0.6,0.4,1.2,0.9,1.8,1.3c0,0,0,0,0.1,0c0.6-0.6,1.2-1.2,1.8-1.8c0,0,0,0,0-0.1c-0.4-0.6-0.9-1.2-1.3-1.7c0,0,0-0.1,0-0.1
		c0.3-0.5,0.5-0.9,0.6-1.5c0-0.1,0.1-0.1,0.1-0.1c0.4-0.1,0.7-0.1,1.1-0.2c0.4-0.1,0.8-0.1,1.1-0.2c0-0.8,0-1.7,0-2.5
		C16.6,7.6,15.9,7.5,15.2,7.4z M9,13.3c-2.4,0-4.3-1.9-4.3-4.3S6.6,4.7,9,4.7s4.3,1.9,4.3,4.3S11.4,13.3,9,13.3z"/>
	<path class="st2" d="M9,5.2C6.9,5.2,5.2,6.9,5.2,9s1.7,3.8,3.8,3.8s3.8-1.7,3.8-3.8S11.1,5.2,9,5.2z M9,11.6
		c-1.4,0-2.6-1.1-2.6-2.6c0-1.4,1.1-2.6,2.6-2.6c1.4,0,2.6,1.1,2.6,2.6C11.6,10.4,10.4,11.6,9,11.6z"/>
</g>
</svg>
