<svg xmlns="http://www.w3.org/2000/svg" viewBox="0 0 273.2 150.91"><defs><style>.cls-1{fill:#bfd0ef;}</style></defs><g id="Layer_2" data-name="Layer 2"><g id="Layer_2-2" data-name="Layer 2"><path class="cls-1" d="M1.54,91C-8.08,42.45,28.68,0,75.45,0H216.28c26.39,0,50.63,17.69,55.79,43.56a54.92,54.92,0,0,1-53.74,66.19H104.55c-16,0-31.16-10.18-34.92-25.76a34.36,34.36,0,0,1,33.26-42.83H205.78V68.59H101.66c-7.55,0-7.55,13.72,0,13.72H217c12,0,23.54-7,27.29-18.32a27.54,27.54,0,0,0-25.94-36.55H76.52c-20.8,0-40.34,12.65-46.63,32.48-10.47,33,14,63.55,45.56,63.55H205.78v27.44H78.24C42,150.91,8.6,126.56,1.54,91Z"/></g></g></svg>