<svg xmlns="http://www.w3.org/2000/svg" viewBox="0 0 163.2 146.88"><defs><style>.cls-1{fill:#bfd0ef;fill-rule:evenodd;}</style></defs><g id="Layer_2" data-name="Layer 2"><g id="Layer_2-2" data-name="Layer 2"><path class="cls-1" d="M146.88,0H16.32A16.36,16.36,0,0,0,0,16.32V130.56a16.37,16.37,0,0,0,16.32,16.32H146.88a16.38,16.38,0,0,0,16.32-16.32V16.32A16.37,16.37,0,0,0,146.88,0ZM65.28,114.24H24.48V97.92h40.8Zm0-32.64H24.48V65.28h40.8Zm0-32.64H24.48V32.64h40.8Zm36.18,50.39-23-23.17L90,64.68l11.5,11.58L127.33,50.4,138.92,62Z"/></g></g></svg>