<svg xmlns="http://www.w3.org/2000/svg" viewBox="0 0 250.61 250.61"><defs><style>.cls-1{fill:#bfd0ef;}</style></defs><g id="Layer_2" data-name="Layer 2"><g id="Layer_2-2" data-name="Layer 2"><path class="cls-1" d="M250.61,186.15A13.82,13.82,0,0,0,237,172.36a159.3,159.3,0,0,1-49.29-7.79,13.6,13.6,0,0,0-14.06,3.34l-21.86,27.43c-39.4-18.8-76.3-54.3-95.93-95.1L83,77.13a14.21,14.21,0,0,0,3.34-14.2,155.53,155.53,0,0,1-7.8-49.28A13.81,13.81,0,0,0,64.74,0H16.57C9.05,0,0,3.34,0,13.78,0,143.13,107.62,250.61,236.83,250.61c9.88,0,13.78-8.77,13.78-16.43Z"/></g></g></svg>