<svg xmlns="http://www.w3.org/2000/svg" viewBox="0 0 233.42 86.17"><defs><style>.cls-1{fill:#bfd0ef;}</style></defs><g id="Layer_2" data-name="Layer 2"><g id="Layer_2-2" data-name="Layer 2"><path class="cls-1" d="M116.71,19.45a145.05,145.05,0,0,0-44.74,7V56.6a9.81,9.81,0,0,1-5.45,8.76,111.93,111.93,0,0,0-25.87,18,9.54,9.54,0,0,1-6.8,2.72,9.7,9.7,0,0,1-6.91-2.82L2.82,59.13A9.29,9.29,0,0,1,0,52.32a9.69,9.69,0,0,1,2.82-6.9,165.5,165.5,0,0,1,227.78,0,9.86,9.86,0,0,1,0,13.81L206.48,83.35a9.7,9.7,0,0,1-6.91,2.82,10,10,0,0,1-6.81-2.72,109.6,109.6,0,0,0-26-18,9.68,9.68,0,0,1-5.45-8.75V26.55A141.15,141.15,0,0,0,116.71,19.45Z"/></g></g></svg>