<svg xmlns="http://www.w3.org/2000/svg" viewBox="0 0 243.68 150.13"><defs><style>.cls-1{fill:#bfd0ef;}</style></defs><g id="Layer_2" data-name="Layer 2"><g id="Layer_1-2" data-name="Layer 1"><path class="cls-1" d="M84.46,127.43l-43-43a13.3,13.3,0,0,1,0-18.8l43-43a13.3,13.3,0,0,0,0-18.8h0a13.3,13.3,0,0,0-18.8,0L3.89,65.66a13.3,13.3,0,0,0,0,18.8l61.77,61.77a13.3,13.3,0,0,0,18.8,0h0A13.3,13.3,0,0,0,84.46,127.43Zm74.76,0,43-43a13.3,13.3,0,0,0,0-18.8l-43-43a13.3,13.3,0,0,1,0-18.8h0a13.3,13.3,0,0,1,18.8,0l61.77,61.77a13.3,13.3,0,0,1,0,18.8L178,146.23a13.3,13.3,0,0,1-18.8,0h0A13.3,13.3,0,0,1,159.22,127.43Z"/></g></g></svg>