<svg id="Layer_1" data-name="Layer 1" xmlns="http://www.w3.org/2000/svg" viewBox="0 0 566.93 566.93"><defs><style>.cls-1{fill:#bfd0ef;fill-rule:evenodd;}</style></defs><g id="Icons"><g id="Rounded"><g id="Hardware"><g id="_-Round-_-Hardware-_-developer_board" data-name="-Round-/-Hardware-/-developer_board"><path id="_-Icon-Color" data-name="🔹-Icon-Color" class="cls-1" d="M567.07,169.71a28.45,28.45,0,0,0-28.37-28.37H510.34V84.61A56.9,56.9,0,0,0,453.6,27.88H56.47A56.9,56.9,0,0,0-.26,84.61V481.74a56.9,56.9,0,0,0,56.73,56.74H453.6a56.9,56.9,0,0,0,56.74-56.74V425H538.7a28.37,28.37,0,1,0,0-56.73H510.34V311.54H538.7a28.37,28.37,0,1,0,0-56.73H510.34V198.08H538.7A28.45,28.45,0,0,0,567.07,169.71Zm-141.83,312H84.84a28.45,28.45,0,0,1-28.37-28.36V113A28.45,28.45,0,0,1,84.84,84.61h340.4A28.44,28.44,0,0,1,453.6,113v340.4A28.44,28.44,0,0,1,425.24,481.74ZM127.39,311.54H240.86A14.18,14.18,0,0,1,255,325.73v85.1A14.18,14.18,0,0,1,240.86,425H127.39a14.18,14.18,0,0,1-14.18-14.18v-85.1A14.18,14.18,0,0,1,127.39,311.54Zm170.2-170.2h85.1a14.18,14.18,0,0,1,14.18,14.19v56.73a14.18,14.18,0,0,1-14.18,14.18h-85.1a14.19,14.19,0,0,1-14.19-14.18V155.53A14.19,14.19,0,0,1,297.59,141.34Zm-170.2,0H240.86A14.18,14.18,0,0,1,255,155.53V269a14.18,14.18,0,0,1-14.18,14.19H127.39A14.18,14.18,0,0,1,113.21,269V155.53A14.18,14.18,0,0,1,127.39,141.34Zm170.2,113.47h85.1A14.18,14.18,0,0,1,396.87,269V410.83A14.18,14.18,0,0,1,382.69,425h-85.1a14.19,14.19,0,0,1-14.19-14.18V269A14.19,14.19,0,0,1,297.59,254.81Z"/></g></g></g></g></svg>