<svg id="Layer_1" data-name="Layer 1" xmlns="http://www.w3.org/2000/svg" viewBox="0 0 566.93 566.93"><defs><style>.cls-1{fill:#bfd0ef;fill-rule:evenodd;}</style></defs><g id="Icons"><g id="Rounded"><g id="Action"><g id="_-Round-_-Action-_-dashboard" data-name="-Round-/-Action-/-dashboard"><path id="_Icon-Color" data-name="🔹Icon-Color" class="cls-1" d="M32.22,314.82H221a31.56,31.56,0,0,0,31.46-31.46V31.71A31.56,31.56,0,0,0,221,.25H32.22A31.56,31.56,0,0,0,.76,31.71V283.36A31.56,31.56,0,0,0,32.22,314.82Zm0,251.66H221A31.56,31.56,0,0,0,252.42,535V409.19A31.56,31.56,0,0,0,221,377.73H32.22A31.56,31.56,0,0,0,.76,409.19V535A31.56,31.56,0,0,0,32.22,566.48Zm314.57,0H535.53A31.55,31.55,0,0,0,567,535V283.36a31.54,31.54,0,0,0-31.45-31.45H346.79a31.55,31.55,0,0,0-31.46,31.45V535A31.56,31.56,0,0,0,346.79,566.48ZM315.33,31.71V157.54A31.55,31.55,0,0,0,346.79,189H535.53A31.54,31.54,0,0,0,567,157.54V31.71A31.55,31.55,0,0,0,535.53.25H346.79A31.56,31.56,0,0,0,315.33,31.71Z"/></g></g></g></g></svg>