<svg xmlns="http://www.w3.org/2000/svg" viewBox="0 0 573.8 409.85"><g id="Layer_2" data-name="Layer 2"><g id="Layer_1-2" data-name="Layer 1"><path d="M423.47,409.85s-17.69-21-32.42-39.52C455.4,352.28,480,312.27,480,312.27a282,282,0,0,1-56.49,28.79,325.64,325.64,0,0,1-71.23,21c-47.16,8.78-90.4,6.34-127.24-.49a414.55,414.55,0,0,1-72.22-21A288.58,288.58,0,0,1,116.92,324c-1.47-1-3-1.46-4.42-2.44a7,7,0,0,1-2-1.46c-8.84-4.88-13.75-8.3-13.75-8.3s23.58,39,86,57.58c-14.74,18.54-32.91,40.49-32.91,40.49C41.27,406.44,0,335.69,0,335.69,0,178.58,70.74,51.24,70.74,51.24,141.48-1.46,208.79,0,208.79,0l4.91,5.86C125.27,31.23,84.5,69.78,84.5,69.78s10.81-5.86,29-14.15C166.05,32.69,207.8,26.35,225,24.89a48.5,48.5,0,0,1,8.35-1,418.37,418.37,0,0,1,99.24-1A402.17,402.17,0,0,1,480.46,69.78s-38.81-36.6-122.33-62L365,0s67.3-1.46,138,51.24c0,0,70.75,127.34,70.75,284.45C573.8,335.69,532,406.44,423.47,409.85ZM195,182c-28,0-50.11,24.39-50.11,54.16s22.6,54.15,50.11,54.15c28,0,50.11-24.39,50.11-54.15C245.63,206.39,223,182,195,182Zm179.31,0c-28,0-50.11,24.39-50.11,54.16s22.6,54.15,50.11,54.15c28,0,50.11-24.39,50.11-54.15S402.35,182,374.34,182Z"/></g></g></svg>