<svg xmlns="http://www.w3.org/2000/svg" viewBox="0 0 286.27 286.27"><defs><style>.cls-1{fill:#bfd0ef;}</style></defs><g id="Layer_2" data-name="Layer 2"><g id="Layer_2-2" data-name="Layer 2"><path class="cls-1" d="M143,0C64,0,0,64.12,0,143.14S64,286.27,143,286.27s143.28-64.12,143.28-143.13A143.21,143.21,0,0,0,143,0ZM93,85.88a21.47,21.47,0,1,1-21.47,21.47A21.44,21.44,0,0,1,93,85.88Zm50.1,141.55c-32.64,0-60.41-23.76-71.57-57.25H214.7C203.54,203.67,175.77,227.43,143.14,227.43Zm50.09-98.61a21.47,21.47,0,1,1,21.47-21.47A21.44,21.44,0,0,1,193.23,128.82Z"/></g></g></svg>