<svg xmlns="http://www.w3.org/2000/svg" viewBox="0 0 430.35 430.35"><g id="Layer_2" data-name="Layer 2"><g id="Layer_1-2" data-name="Layer 1"><path d="M379.12,204.93H348.38V123a41.11,41.11,0,0,0-41-41h-82V53.71c0-23.93-15.21-46.54-38.48-52.17a51.33,51.33,0,0,0-64,49.69V82H40.78A40.78,40.78,0,0,0,0,122.75v82.18H24.61c27.2,0,52.3,19.5,54.69,46.58a51.27,51.27,0,0,1-51,55.88H0v82a41.11,41.11,0,0,0,41,41h82V399.12c0-22.88,13.31-44.91,35-52.14,35.15-11.73,67.45,16.41,67.45,52.63v30.74h82a41.12,41.12,0,0,0,41-41v-82h28.26c23.93,0,46.54-15.21,52.16-38.48A51.32,51.32,0,0,0,379.12,204.93Z"/></g></g></svg>