<svg xmlns="http://www.w3.org/2000/svg" viewBox="0 0 259.94 294.6"><defs><style>.cls-1{fill:#bfd0ef;}</style></defs><g id="Layer_2" data-name="Layer 2"><g id="Layer_1-2" data-name="Layer 1"><path class="cls-1" d="M160.11,20.73l-1.36-6.8A17.33,17.33,0,0,0,141.76,0H17.33A17.33,17.33,0,0,0,0,17.33V294.6H34.66V173.29H117.5a17.33,17.33,0,0,1,17,13.94l1.36,6.79a17.33,17.33,0,0,0,17,13.93h89.77a17.33,17.33,0,0,0,17.33-17.33V52a17.33,17.33,0,0,0-17.33-17.33H177.1A17.33,17.33,0,0,1,160.11,20.73Z"/></g></g></svg>