<svg xmlns="http://www.w3.org/2000/svg" viewBox="0 0 154.69 85.24"><defs><style>.cls-1{fill:#bfd0ef;}</style></defs><g id="Layer_2" data-name="Layer 2"><g id="Layer_2-2" data-name="Layer 2"><path class="cls-1" d="M140.58,0H14.11A14.15,14.15,0,0,0,0,14.11v57A14.15,14.15,0,0,0,14.11,85.24H140.58a14.15,14.15,0,0,0,14.11-14.11v-57A14.15,14.15,0,0,0,140.58,0Zm-68,50.51H50.51v22.1H37.88V50.51H15.78V37.88h22.1V15.78H50.51v22.1h22.1Zm30.22,14.26a10.58,10.58,0,1,1,10.58-10.58A10.57,10.57,0,0,1,102.83,64.77ZM131,43.61A10.59,10.59,0,1,1,141.62,33,10.57,10.57,0,0,1,131,43.61Z"/></g></g></svg>