<svg xmlns="http://www.w3.org/2000/svg" viewBox="0 0 289.26 274.66"><defs><style>.cls-1{fill:#bfd0ef;}</style></defs><g id="Layer_2" data-name="Layer 2"><g id="Layer_2-2" data-name="Layer 2"><path class="cls-1" d="M289.26,86.73a28.91,28.91,0,0,0-28.91-28.91H228.8a43.28,43.28,0,0,0-76.94-38.3l-7.23,9.68-7.23-9.83a43.41,43.41,0,0,0-79.55,24,43.15,43.15,0,0,0,2.61,14.45H28.93A28.7,28.7,0,0,0,.14,86.73L0,245.75a28.82,28.82,0,0,0,28.93,28.91H260.35a28.91,28.91,0,0,0,28.91-28.91Zm-97.5-57.82A14.46,14.46,0,1,1,177.3,43.37,14.51,14.51,0,0,1,191.76,28.91Zm-86.73,0A14.46,14.46,0,1,1,90.57,43.37,14.5,14.5,0,0,1,105,28.91ZM260.35,245.75H29.06V216.84H260.35Zm0-72.28H29.06V86.73h73.43L72.42,127.64l23.42,16.92,34.41-46.84L144.7,78.06l14.46,19.66,34.4,46.84L217,127.64,186.91,86.73h73.44Z"/></g></g></svg>