<svg xmlns="http://www.w3.org/2000/svg" viewBox="0 0 197.52 197.62"><defs><style>.cls-1{fill:#bfd0ef;}</style></defs><g id="Layer_2" data-name="Layer 2"><g id="Layer_1-2" data-name="Layer 1"><path class="cls-1" d="M2.88,180.78,97.29,86.37l-13.77-14-7.08,7a9.81,9.81,0,0,1-13.87,0l-7-7a9.79,9.79,0,0,1,0-13.87L111.25,2.88a9.79,9.79,0,0,1,13.87,0l7,7a9.79,9.79,0,0,1,0,13.87l-7,6.78,14,14.06a9.81,9.81,0,0,1,13.87,0,9.91,9.91,0,0,1,0,14l13.87,13.87,7-7a9.92,9.92,0,0,1,14,0l6.89,7a9.92,9.92,0,0,1,0,14l-55.57,55.57a9.92,9.92,0,0,1-14,0l-6.89-6.89a9.74,9.74,0,0,1,0-14l6.89-7-13.87-13.86L16.74,194.75a9.8,9.8,0,0,1-13.86,0,9.91,9.91,0,0,1,0-14M177,170.46c10.86-2.27,19.67,6.54,19.74,17.4v8.83H91.79v-8.83c6.48-10.86,15.29-19.67,26.15-17.4Z"/></g></g></svg>