<svg xmlns="http://www.w3.org/2000/svg" viewBox="0 0 463.67 312.92"><defs><style>.cls-1{fill:#bfd0ef;fill-rule:evenodd;}</style></defs><g id="Layer_2" data-name="Layer 2"><g id="Layer_2-2" data-name="Layer 2"><path class="cls-1" d="M455.34.88,272,117.62a21,21,0,0,0-7.42,8.1l-27.95,54.37a5.43,5.43,0,0,1-9.59,0l-28-54.37a21.05,21.05,0,0,0-7.41-8.1L8.33.88C3.74-2-1.88,2.84.61,7.59l76,144.66a5.2,5.2,0,0,1-4.78,7.55H26.35a5.18,5.18,0,0,0-3.12,9.43L228.71,312a5.48,5.48,0,0,0,6.24,0L440.44,169.23a5.18,5.18,0,0,0-3.13-9.43H391.82a5.2,5.2,0,0,1-4.77-7.55l76-144.66c2.49-4.75-3.13-9.63-7.72-6.71"/></g></g></svg>