<svg xmlns="http://www.w3.org/2000/svg" viewBox="0 0 432.88 352.14"><defs><style>.cls-1{fill:#bfd0ef;}</style></defs><g id="Layer_2" data-name="Layer 2"><g id="Layer_1-2" data-name="Layer 1"><path class="cls-1" d="M156.51,234.76C104.27,234.76,0,261,0,313v39.13H313V313C313,261,208.74,234.76,156.51,234.76Z"/><path class="cls-1" d="M417.36,75.12c.2-2.15.39-4.3.39-6.65a36.66,36.66,0,0,0-.58-6.65l14.47-11.35a3.31,3.31,0,0,0,.78-4.3L418.73,22.5a3.54,3.54,0,0,0-4.11-1.57L397.8,27.78a52.14,52.14,0,0,0-11.54-6.65l-2.55-18.2A3.55,3.55,0,0,0,380.19,0H352.8a3.21,3.21,0,0,0-3.32,2.93l-2.55,18.2a61.43,61.43,0,0,0-11.54,6.65l-17-6.85a3.25,3.25,0,0,0-4.11,1.57L300.57,46.17a3.28,3.28,0,0,0,.78,4.3l14.48,11.35a37.77,37.77,0,0,0,0,13.3L301.35,86.47a3.32,3.32,0,0,0-.78,4.3l13.69,23.67a3.55,3.55,0,0,0,4.11,1.57l17-6.85a52.14,52.14,0,0,0,11.54,6.65l2.55,18.2a3.21,3.21,0,0,0,3.32,2.93h27.39a3.23,3.23,0,0,0,3.33-2.93l2.54-18.2a60.58,60.58,0,0,0,11.54-6.65l17,6.85a3.24,3.24,0,0,0,4.11-1.57l13.69-23.67a3.27,3.27,0,0,0-.78-4.3ZM366.5,98.62A24.46,24.46,0,1,1,391,74.16,24.47,24.47,0,0,1,366.5,98.62Z"/><path class="cls-1" d="M374.71,169.81l-9.78-17a2.37,2.37,0,0,0-2.93-1.18l-12.13,4.9a34,34,0,0,0-8.22-4.7l-1.76-12.91a2.93,2.93,0,0,0-2.74-2H317.59a2.34,2.34,0,0,0-2.35,2.15L313.48,152a42.73,42.73,0,0,0-8.22,4.69l-12.12-4.89A2.31,2.31,0,0,0,290.2,153l-9.78,17a2.39,2.39,0,0,0,.59,3.13l10.36,8a39.19,39.19,0,0,0-.39,4.7,36.17,36.17,0,0,0,.39,4.7l-10.36,8a2.44,2.44,0,0,0-.59,3.13l9.78,17a2.39,2.39,0,0,0,2.94,1.17L305.26,215a34.3,34.3,0,0,0,8.22,4.69l1.76,12.92a2.34,2.34,0,0,0,2.35,2.15h19.56a2.21,2.21,0,0,0,2.35-2.15l1.76-12.92a42.73,42.73,0,0,0,8.22-4.69l12.13,4.89a2.31,2.31,0,0,0,2.93-1.17l9.78-17a2.4,2.4,0,0,0-.58-3.13l-10.18-8a37.23,37.23,0,0,0,.39-4.7,34.36,34.36,0,0,0-.39-4.7l10.37-8A3,3,0,0,0,374.71,169.81Zm-47.34,38a16.24,16.24,0,1,1,16.24-16.24A16.32,16.32,0,0,1,327.37,207.78Z"/><path class="cls-1" d="M68.77,117.38H244.24a9.85,9.85,0,0,0,10.08-9.59v-.39a9.85,9.85,0,0,0-10.08-9.58h-9.48c0-29-15.85-53.8-39.13-67.5V48.91a9.78,9.78,0,0,1-19.56,0V28a79.81,79.81,0,0,0-19.56-2.74A79.82,79.82,0,0,0,136.94,28V48.91a9.78,9.78,0,0,1-19.56,0V30.32C94.1,44,78.25,68.86,78.25,97.82H68.77a9.86,9.86,0,0,0-10.08,9.58V108C58.69,113.08,63.22,117.38,68.77,117.38Z"/><path class="cls-1" d="M161.08,195.63c36.39,0,66.71-25,75.52-58.69h-151C94.37,170.59,124.7,195.63,161.08,195.63Z"/></g></g></svg>