<svg xmlns="http://www.w3.org/2000/svg" viewBox="0 0 873.15 610.9"><defs><style>.cls-1{fill:#bfd0ef;}</style></defs><g id="Layer_2" data-name="Layer 2"><g id="Layer_2-2" data-name="Layer 2"><path class="cls-1" d="M873.15,87.27A87.52,87.52,0,0,0,785.88,0H87.32C39.29,0,.44,39.27.44,87.27L0,523.63c0,48,39.29,87.27,87.32,87.27H785.88a87.52,87.52,0,0,0,87.27-87.27Zm-480,43.64h87.27v87.27H393.16Zm0,130.9h87.27v87.28H393.16ZM262.25,130.91h87.27v87.27H262.25Zm0,130.9h87.27v87.28H262.25Zm-43.63,87.28H131.34V261.81h87.28Zm0-130.91H131.34V130.91h87.28ZM611.34,523.63H262.25V436.36H611.34Zm0-174.54H524.07V261.81h87.27Zm0-130.91H524.07V130.91h87.27Zm130.9,130.91H655V261.81h87.27Zm0-130.91H655V130.91h87.27Z"/></g></g></svg>