<svg xmlns="http://www.w3.org/2000/svg" viewBox="0 0 198.9 198.83"><defs><style>.cls-1{fill:#bfd0ef;}</style></defs><g id="Layer_2" data-name="Layer 2"><g id="Layer_1-2" data-name="Layer 1"><path class="cls-1" d="M198.88,99.64c0,20.54.05,41.07,0,61.61-.06,17.17-11,31.84-27.11,36.19a39.2,39.2,0,0,1-10,1.3q-62.19.13-124.37,0c-18.74,0-33.71-12.89-36.85-31.33a36.46,36.46,0,0,1-.41-6.09C.06,120.13.2,78.9,0,37.68-.1,17.37,15.38,3.49,29,.9A49.12,49.12,0,0,1,38.26.05Q99.66,0,161,0c19.17,0,34.3,12.75,37.42,31.47a44.52,44.52,0,0,1,.41,7.22Q198.92,69.18,198.88,99.64ZM108.07,65.88c-.65.68-1.19,1.28-1.77,1.86L39.66,134.38c-4.2,4.19-4.21,8.68-.06,12.85q5.74,5.78,11.53,11.53c4.81,4.81,9,4.81,13.82,0l66.17-66.16c.62-.61,1.26-1.2,2-2,.73.82,1.25,1.46,1.84,2q8.4,8.43,16.82,16.82c2.54,2.52,5.61,2.86,8.81,1.64a7.33,7.33,0,0,0,5.07-7.3q0-31.28,0-62.53a8,8,0,0,0-8-8.14q-31.38-.08-62.76,0c-3.59,0-5.93,1.89-7.28,5.12A7.37,7.37,0,0,0,89.31,47q8.5,8.49,17,17C106.87,64.59,107.42,65.2,108.07,65.88Z"/></g></g></svg>