<svg xmlns="http://www.w3.org/2000/svg" viewBox="0 0 379.28 379.19"><defs><style>.cls-1{fill:#bfd0ef;}</style></defs><g id="Layer_2" data-name="Layer 2"><g id="Layer_1-2" data-name="Layer 1"><path class="cls-1" d="M239.27,120.38c-8,5.3-33.17,19.71-37,22.56-7.39,5.87-14.21,5.49-21.61-.19-3.79-3-29-17.44-37-22.56-9.1-5.88-8.53-13.27,1.51-17.44,31.09-13.08,62.18-12.14,93.08.57,9.29,4,9.67,11.37,1,17.06m136.87,138a362,362,0,0,0-72.79-107.29,81.7,81.7,0,0,1-20.1-35.64c-1.89-6.26-3.22-12.7-4.55-19.15-3.79-16.68-5.5-33.74-13.27-49.48C251.59,16.87,227.52,1.33,192.64,0c-34.32,1-59.91,15.36-74.88,45.5A111.61,111.61,0,0,0,109,70.9c-3.23,14.41-6.07,29.38-9.48,44a64.16,64.16,0,0,1-18.2,32.42A370,370,0,0,0,7.81,248.72a114.7,114.7,0,0,0-7,16.68c-3.6,12.51,5.5,21.23,18.77,18.2,8.34-1.71,16.68-3.42,24.64-5.88,7.78-2.84,10.81-1,12.7,6.63,12.33,40.76,39.25,69.39,80.38,85.31,78.1,29.57,169.29-12.51,189-86.82,1.33-5.12,3.23-7,8.91-5.12,8.72,2.65,17.63,4.55,26.54,6.63,9.29,1.71,16.12-3,17.44-12.13.57-4.93-1.13-9.29-3-13.84"/></g></g></svg>