<svg xmlns="http://www.w3.org/2000/svg" viewBox="0 0 574.2 753.64"><defs><style>.cls-1{fill:#bfd0ef;}</style></defs><g id="Layer_2" data-name="Layer 2"><g id="Layer_2-2" data-name="Layer 2"><path class="cls-1" d="M502.43,251.21H466.54v-63.8c0-80.61-50.47-155.08-127.67-178.25C208.67-29.92,88.77,61.54,88.77,179.44h71.78c0-73.7,75.74-130.84,157.19-104.9,46.82,14.91,77,60.71,77,109.85v66.82h-323A72,72,0,0,0,0,323V681.87a72,72,0,0,0,71.78,71.77H502.43a72,72,0,0,0,71.77-71.77V323A72,72,0,0,0,502.43,251.21ZM286.74,574.56a71.78,71.78,0,1,1,71.78-71.77A72,72,0,0,1,286.74,574.56Z"/></g></g></svg>