<svg xmlns="http://www.w3.org/2000/svg" viewBox="0 0 554.05 742.17"><defs><style>.cls-1{fill:#43b581;}</style></defs><g id="Layer_2" data-name="Layer 2"><g id="Layer_2-2" data-name="Layer 2"><g id="Layer_2-3" data-name="Layer 2"><g id="Layer_2-2-2" data-name="Layer 2-2"><path class="cls-1" d="M164.34,342.4c0,64,49.48,119.91,113.44,121.19A115.38,115.38,0,0,0,395.7,350.8q0-1.64,0-3.27l.37-231.44A116.07,116.07,0,0,0,280.06,0l-2.59,0C213.64,1.56,164.34,57.39,164.34,121.22Zm322.39,16.16c0,115.07-100.28,195.63-209.71,195.63S67.25,473.63,67.25,358.56H0c0,130.81,107.61,239,237.41,257.79V742.17h79.16V616.35c129.8-18.23,237.48-126.56,237.48-257.79Z"/></g></g></g></g></svg>