<svg xmlns="http://www.w3.org/2000/svg" viewBox="0 0 851.71 916.43"><defs><style>.cls-1{fill:#f04747;}</style></defs><g id="Layer_2" data-name="Layer 2"><g id="Layer_2-2" data-name="Layer 2"><g id="Layer_2-3" data-name="Layer 2"><g id="Layer_1-2" data-name="Layer 1-2"><path class="cls-1" d="M756.1,439.93H675.43A242.87,242.87,0,0,1,655,537.19l58.52,58.47A313.34,313.34,0,0,0,756.1,439.93Zm-191.36-3.28V150.08c0-70.49-47.68-135.49-116.86-147.69A143.27,143.27,0,0,0,278.69,143v8.6L563.6,437ZM60.07,58.28,0,118.78,284.41,405.52v34.41c-.12,78.86,63.07,142.9,141.16,143h.79a131.43,131.43,0,0,0,30.84-3.79L536,658.31a259.82,259.82,0,0,1-109.59,24.77c-130.93,0-251.42-100.12-251.42-243.15H82.54c0,161.92,133,295.85,293.41,319.1V914.78h97.26V760.05a329.82,329.82,0,0,0,120.2-42.9L791.69,916.43l60-60.27Z"/></g></g></g></g></svg>