<svg xmlns="http://www.w3.org/2000/svg" viewBox="0 0 535.62 535.62"><defs><style>.cls-1{fill:#bfd0ef;}</style></defs><g id="Layer_2" data-name="Layer 2"><g id="Layer_1-2" data-name="Layer 1"><path class="cls-1" d="M535.62,53.56,482.06,0c-30.8,17.14-69.63,26.78-107.12,26.78S298.34,16.87,267.81,0c-30.53,16.87-69.63,26.78-107.12,26.78S84.36,17.14,53.56,0L0,53.56s53.56,53.56,53.56,107.13S0,321.37,0,374.94C0,482.06,267.81,535.62,267.81,535.62s267.81-53.56,267.81-160.68c0-53.57-53.56-160.69-53.56-214.25S535.62,53.56,535.62,53.56ZM350.38,375.84,267.9,326l-82.22,49.81,22-93.73L134.8,219.44l95.87-8.3,37.23-88.38,37.49,88.11,95.88,8.3-72.85,62.67Z"/></g></g></svg>