<svg xmlns="http://www.w3.org/2000/svg" viewBox="0 0 390.06 274.36"><defs><style>.cls-1{fill:#bfd0ef;}</style></defs><g id="Layer_2" data-name="Layer 2"><g id="Layer_2-2" data-name="Layer 2"><path class="cls-1" d="M36.89,83.66A14.48,14.48,0,0,1,22.4,97.87H14.5a14.21,14.21,0,1,1,0-28.42h7.9A14.48,14.48,0,0,1,36.89,83.66ZM376.8,79.49c32.95,68.32,2.53,150.3-69.69,182.59-69.69,31.05-153.32,1.24-185-67.07a130.27,130.27,0,0,1-11.4-43.48H85.2a14.21,14.21,0,1,1,0-28.41h40.18a12.63,12.63,0,1,0,0-25.25h-64a14.21,14.21,0,1,1,0-28.42h88.23a14.48,14.48,0,0,0,14.49-14.2A14.48,14.48,0,0,0,149.63,41H113.48c-11.09,0-20.94-8.45-20.94-20.52A20.55,20.55,0,0,1,113.48,0H255.16C305.84,2.49,354,31.05,376.8,79.49ZM217.16,65.05c-39.61,17.83-57,63.76-38.79,102.59s65,55.85,104.66,38,57-63.76,38.79-102.59S256.77,47.22,217.16,65.05Zm63.16,25.8,25.09,41.83c1.26,2.45,1.26,3.69,0,6.14l-25.09,41.83c-1.26,2.45-3.76,2.45-5,2.45H226.36c-2.51,0-3.76-1.23-5-2.45l-25.1-41.83c-1.25-2.45-1.25-3.69,0-6.14l25.1-41.83c1.25-2.45,3.76-2.45,5-2.45H275.3C277.81,87.16,279.06,88.4,280.32,90.85Z"/></g></g></svg>