<svg xmlns="http://www.w3.org/2000/svg" viewBox="0 0 615.34 519.34"><defs><style>.cls-1{fill:#bfd0ef;}</style></defs><g id="Layer_2" data-name="Layer 2"><g id="Layer_2-2" data-name="Layer 2"><path class="cls-1" d="M612.85,195.26,503.49,8.91a18,18,0,0,0-24.56-6.49L413.38,40.26l-59-21.72a67.63,67.63,0,0,0-6.59-2,65.93,65.93,0,0,0-49.28,6.83L200.88,79.68A45.07,45.07,0,0,0,246,157.74L353,95.91a36.07,36.07,0,0,1,36.06,0S604.86,220.52,605.55,221l3.21-2.64a18,18,0,0,0,4.09-23.05Z"/><path class="cls-1" d="M585.44,250.9,371.07,127.14,264,189a80.71,80.71,0,0,1-40.43,10.9,81.69,81.69,0,0,1-21.13-2.8A81.12,81.12,0,0,1,173.55,54.73l-44.2-25.52a18,18,0,0,0-24.9,7.09L2.14,227A18,18,0,0,0,9,251.17l9.37,5.4,16.44-28.48a76.71,76.71,0,0,1,122.46-13.92,76.56,76.56,0,0,1,100.17,52.14c.59,2.17,1.06,4.36,1.44,6.55a76.64,76.64,0,0,1,56.8,54.83c.58,2.17,1.05,4.36,1.44,6.55a76.6,76.6,0,0,1,49.15,113l-22.46,38.9L392,513.9a40.56,40.56,0,0,0,40.56-70.26l31.22,18a40.56,40.56,0,1,0,40.56-70.26l20.82,12a40.56,40.56,0,1,0,40.56-70.25l-20.81-12a40.56,40.56,0,0,0,40.56-70.26Z"/><path class="cls-1" d="M320.21,373.77a40.57,40.57,0,0,0-55.41,14.85l12-20.82a40.56,40.56,0,1,0-70.25-40.56l12-20.82a40.56,40.56,0,1,0-70.26-40.56l-12,20.82a40.56,40.56,0,1,0-70.25-40.57L22.49,321.57a40.56,40.56,0,0,0,70.26,40.56A40.56,40.56,0,1,0,163,402.69a40.56,40.56,0,0,0,70.26,40.56,40.56,40.56,0,0,0,70.25,40.57l31.55-54.65a40.56,40.56,0,0,0-14.85-55.4Z"/></g></g></svg>