<svg xmlns="http://www.w3.org/2000/svg" viewBox="0 0 603.84 439.16"><defs><style>.cls-1,.cls-2{fill:#bfd0ef;}.cls-1{fill-rule:evenodd;}</style></defs><g id="Layer_2" data-name="Layer 2"><g id="Layer_1-2" data-name="Layer 1"><path class="cls-1" d="M430.1,250.6c37.6,25.52,63.95,60.11,63.95,106.22v82.34H603.84V356.82C603.84,297,505.86,261.57,430.1,250.6Z"/><circle class="cls-2" cx="219.58" cy="109.79" r="109.79"/><path class="cls-1" d="M384.26,219.58A109.79,109.79,0,1,0,384.26,0c-12.9,0-25,2.74-36.5,6.59a164.14,164.14,0,0,1,0,206.4C359.29,216.83,371.36,219.58,384.26,219.58Z"/><path class="cls-1" d="M219.58,247C146.29,247,0,283.81,0,356.82v82.34H439.16V356.82C439.16,283.81,292.86,247,219.58,247Z"/></g></g></svg>