<svg xmlns="http://www.w3.org/2000/svg" viewBox="0 0 179.57 179.57"><defs><style>.cls-1{fill:#43b581;}</style></defs><g id="Layer_2" data-name="Layer 2"><g id="Layer_1-2" data-name="Layer 1"><path class="cls-1" d="M134.67,89.78l44.9-44.89L134.67,0V26.93H98.76V62.85h35.91Zm26.94,49.38a9,9,0,0,0-8.89-9,102,102,0,0,1-32.14-5.11,9.17,9.17,0,0,0-9.16,2.15L91.67,147A135,135,0,0,1,32.5,87.81L52.25,68a8.61,8.61,0,0,0,2.25-9,102.08,102.08,0,0,1-5.12-32.15,8.93,8.93,0,0,0-9-8.88H9a8.91,8.91,0,0,0-9,8.72A152.61,152.61,0,0,0,152.88,179.56a8.89,8.89,0,0,0,8.73-9Z"/></g></g></svg>