<svg xmlns="http://www.w3.org/2000/svg" viewBox="0 0 210.88 159.49"><defs><style>.cls-1{fill:#f04747;}</style></defs><g id="Layer_2" data-name="Layer 2"><g id="Layer_1-2" data-name="Layer 1"><path class="cls-1" d="M56,22.45l47,49.38L165.88,9l-9-9L103,53.87,62.63,18.39h29.3V.43H38.06V54.3H56ZM208.25,122.69a149.45,149.45,0,0,0-205.7,0,8.9,8.9,0,0,0,0,12.47l21.78,21.78a8.77,8.77,0,0,0,6.24,2.55A9,9,0,0,0,36.71,157a100.23,100.23,0,0,1,23.37-16.25A8.76,8.76,0,0,0,65,132.87V105.65a128.36,128.36,0,0,1,40.41-6.41,130.92,130.92,0,0,1,40.4,6.32v27.23a8.84,8.84,0,0,0,4.92,7.9,103.49,103.49,0,0,1,23.45,16.25,8.64,8.64,0,0,0,6.15,2.46,8.74,8.74,0,0,0,6.23-2.55l21.78-21.78a8.73,8.73,0,0,0,2.55-6.24A8.6,8.6,0,0,0,208.25,122.69Z"/></g></g></svg>