<svg xmlns="http://www.w3.org/2000/svg" viewBox="0 0 191.74 191.74"><defs><style>.cls-1{fill:#bfd0ef;}</style></defs><g id="Layer_2" data-name="Layer 2"><g id="Layer_2-2" data-name="Layer 2"><path class="cls-1" d="M168.92,91.31h-13.7V54.78A18.32,18.32,0,0,0,137,36.52H100.44V23.93c0-10.66-6.78-20.74-17.15-23.24A22.87,22.87,0,0,0,54.78,22.83V36.52H18.17A18.18,18.18,0,0,0,0,54.69V91.31H11c12.11,0,23.3,8.68,24.36,20.75A22.84,22.84,0,0,1,12.6,137H0v36.52a18.31,18.31,0,0,0,18.26,18.26H54.78V177.83c0-10.19,5.94-20,15.6-23.23,15.67-5.23,30.06,7.31,30.06,23.45v13.69H137a18.31,18.31,0,0,0,18.26-18.26V137h12.59c10.67,0,20.74-6.78,23.25-17.14A22.87,22.87,0,0,0,168.92,91.31Z"/></g></g></svg>