<svg xmlns="http://www.w3.org/2000/svg" viewBox="0 0 897.75 1282.5"><defs><style>.cls-1{fill:#bfd0ef;fill-rule:evenodd;}</style></defs><g id="Layer_2" data-name="Layer 2"><g id="Layer_1-2" data-name="Layer 1"><path class="cls-1" d="M705.38,448.88V128.25H769.5a64.31,64.31,0,0,0,64.12-64.12h0A64.31,64.31,0,0,0,769.5,0H128.25A64.32,64.32,0,0,0,64.12,64.13h0a64.32,64.32,0,0,0,64.13,64.12h64.13V448.88A192.12,192.12,0,0,1,0,641.25H0V769.5H384.75v448.88l64.12,64.12L513,1218.38V769.5H897.75V641.25h0A192.11,192.11,0,0,1,705.38,448.88Z"/></g></g></svg>