<svg xmlns="http://www.w3.org/2000/svg" viewBox="0 0 313.53 313.53"><defs><style>.cls-1{fill:#bfd0ef;}</style></defs><g id="Layer_2" data-name="Layer 2"><g id="Layer_2-2" data-name="Layer 2"><path class="cls-1" d="M156.76,120.44a34.84,34.84,0,1,0,34.84,34.84A34.94,34.94,0,0,0,156.76,120.44ZM278.69,0H34.84A34.83,34.83,0,0,0,0,34.84V278.69a34.84,34.84,0,0,0,34.84,34.84H278.69a34.84,34.84,0,0,0,34.84-34.84V34.84A34.84,34.84,0,0,0,278.69,0ZM248.21,156.76a88.59,88.59,0,0,1-.87,11.85l25.78,20.2a6.16,6.16,0,0,1,1.39,7.84L250.12,238.8a6.07,6.07,0,0,1-7.53,2.6l-30.26-12.18a93,93,0,0,1-20.56,12l-4.53,32.22a6.31,6.31,0,0,1-6.09,5.23H132.38a6.34,6.34,0,0,1-6.1-5.05l-4.53-32.23a89.56,89.56,0,0,1-20.55-12L70.89,241.59A6,6,0,0,1,63.42,239L39,196.82A6.14,6.14,0,0,1,40.41,189l25.78-20.21a93.31,93.31,0,0,1-.87-12,88.56,88.56,0,0,1,.87-11.84L40.41,124.71A6.14,6.14,0,0,1,39,116.88l24.4-42.2a6,6,0,0,1,7.47-2.57L101.2,84.3a93.55,93.55,0,0,1,20.55-12l4.53-32.23a6.32,6.32,0,0,1,6.1-5.22h48.77a6.33,6.33,0,0,1,6.09,5l4.53,32.22a89.67,89.67,0,0,1,20.56,12l30.3-12.19a6,6,0,0,1,7.47,2.57l24.41,42.19a6.16,6.16,0,0,1-1.39,7.84l-25.78,20.2A93.57,93.57,0,0,1,248.21,156.76Z"/></g></g></svg>