<svg xmlns="http://www.w3.org/2000/svg" viewBox="0 0 2350.9 2350.9"><defs><style>.cls-1{fill:#bfd0ef;}</style></defs><g id="Layer_2" data-name="Layer 2"><g id="Layer_1-2" data-name="Layer 1"><path class="cls-1" d="M-5495.87-1323.84h-189.56c-224.86,0-407.14,182.28-407.14,407.14v308.09h246.89l466.59-466.59v-248.64Z" transform="translate(7729.99 2959.51)"/><path class="cls-1" d="M-5685.43-1458.1h306.34V-2548.32c0-227.1-184.1-411.19-411.2-411.19h-1528.3a410.35,410.35,0,0,0-411.4,411.4v1528.3c0,227.1,184.1,411.2,411.19,411.2h1092V-916.7C-6226.83-1215.23-5984-1458.1-5685.43-1458.1Zm-602.7-895c1.82-.49,3.69-.84,5.54-1.27a217.13,217.13,0,0,1,49.68-5.78c54.52,0,105.25,22.07,142.63,58.49a207.37,207.37,0,0,1,15.17,16.46c1.31,1.59,2.56,3.24,3.83,4.87a205.1,205.1,0,0,1,35.75,70.56,260.79,260.79,0,0,1,7,59.92L-6408-2046.5a230.6,230.6,0,0,1-23.88-49.54c-.25-.72-.55-1.43-.79-2.15C-6460.83-2209.8-6398.56-2322.58-6288.13-2353.13Zm-879.49,461.61c-.65-2.29-1.2-4.6-1.64-7a205.51,205.51,0,0,1-6.94-61c0-.49.06-1,.08-1.47a207.55,207.55,0,0,1,70.87-146.75q7.52-6.57,15.72-12.43,4.09-2.92,8.35-5.66,8.51-5.47,17.64-10.15c5.25-2.68,10.67-5.11,16.21-7.36q5-2,10.08-3.81c.8-.28,1.58-.6,2.38-.87q5-1.66,10.11-3.1c17.63-5.87,35.25-5.87,55.23-5.87a209.88,209.88,0,0,1,54.14,7,200.85,200.85,0,0,1,123.71,95.42,207.48,207.48,0,0,1,19.52,47.91,243.59,243.59,0,0,1,7.05,58.74l-379.48,103.39C-7153.84-1860.87-7163.09-1875.52-7167.62-1891.52Zm902.41,486.6q-19.47,11.25-39.85,21.09c-.52.25-1,.47-1.55.72q-17.3,8.28-35.19,15.49a612.77,612.77,0,0,1-66.16,22.5,614.9,614.9,0,0,1-151.59,21.48q-10.83.17-21.64,0a617.37,617.37,0,0,1-103.76-10.83c-8.1-1.54-16.17-3.2-24.19-5.06q-20.91-4.85-41.43-11.13a617.91,617.91,0,0,1-257-154.62q-15.56-15.62-30.11-32.47L-6126-1788.43l161-44.25q-2.58,14.23-5.79,28.25a623.54,623.54,0,0,1-73.92,182.86q-5.78,9.58-11.88,18.93A619.47,619.47,0,0,1-6246-1416.5Q-6255.46-1410.53-6265.21-1404.92Z" transform="translate(7729.99 2959.51)"/></g></g></svg>