<svg xmlns="http://www.w3.org/2000/svg" viewBox="0 0 257.73 257.73"><defs><style>.cls-1{fill:#bfd0ef;}</style></defs><g id="Layer_2" data-name="Layer 2"><g id="Layer_2-2" data-name="Layer 2"><path class="cls-1" d="M36.7,32.2C-50.45,141.55,31.46,264.77,138,257.41a10.86,10.86,0,0,0,5.26-1.77c21.64-14.59,22-37.4,9.62-51.65a6.79,6.79,0,0,1-1.67-4.25,6.37,6.37,0,0,1,6.44-6.44h59.64a23.31,23.31,0,0,0,19.45-10.8c74.46-114.91-63-234.4-190.25-158.8A36.33,36.33,0,0,0,36.7,32.2Zm163,108a19.33,19.33,0,1,1,19.33-19.33A19.3,19.3,0,0,1,199.74,140.21ZM161.08,88.67a19.33,19.33,0,1,1,19.33-19.33A19.31,19.31,0,0,1,161.08,88.67ZM38.66,120.88A19.33,19.33,0,1,1,58,140.21,19.31,19.31,0,0,1,38.66,120.88ZM116,69.34A19.33,19.33,0,1,1,96.65,50,19.31,19.31,0,0,1,116,69.34Z"/></g></g></svg>