<svg xmlns="http://www.w3.org/2000/svg" viewBox="0 0 293.97 268.4"><defs><style>.cls-1{fill:#bfd0ef;}</style></defs><g id="Layer_2" data-name="Layer 2"><g id="Layer_1-2" data-name="Layer 1"><path class="cls-1" d="M156.72,179.54l-34.89-34.48.41-.41a240.7,240.7,0,0,0,51-89.7h40.25V27.47h-93V0H93V27.47H0V55H152.68a214.84,214.84,0,0,1-43.33,73.26A213.94,213.94,0,0,1,77.77,82.42H44.35a241.25,241.25,0,0,0,40.93,62.64L15.36,214l19.51,19.51,68.68-68.69,42.73,42.72Zm77-71.76H207L146.73,268.4H173.5l15-40.16h63.58L267.2,268.4H294Zm-35.06,95.1,21.68-57.95L242,202.88Z"/></g></g></svg>