<svg xmlns="http://www.w3.org/2000/svg" viewBox="0 0 1391.22 1202.06"><defs><style>.cls-1{fill:#bfd0ef;}</style></defs><g id="Layer_2" data-name="Layer 2"><g id="Layer_1-2" data-name="Layer 1"><path class="cls-1" d="M695.93,253.06c174.61,0,316.33,141.72,316.33,316.34a307,307,0,0,1-22.78,115.77l184.74,184.74a747.66,747.66,0,0,0,217-300.51C1281.77,291.66,1011.63,94.9,695.29,94.9A736.7,736.7,0,0,0,443.5,139.19L580.15,275.84A307.05,307.05,0,0,1,695.93,253.06ZM63.27,80.35,207.51,224.59l29.11,29.11A746.73,746.73,0,0,0,0,569.4c109.45,277.73,379.6,474.49,695.93,474.49A745.08,745.08,0,0,0,973,990.75l26.57,26.57L1185,1202.06l80.35-80.35L143.61,0ZM413.13,430.21l98.06,98.06a178.74,178.74,0,0,0-5.06,41.13,189.54,189.54,0,0,0,189.8,189.79,178.11,178.11,0,0,0,41.12-5.06l98.06,98.06c-42.39,20.88-89.2,33.54-139.18,33.54C521.31,885.73,379.6,744,379.6,569.4,379.6,519.41,392.25,472.6,413.13,430.21ZM685.8,380.86,885.09,580.15,886.36,570a189.55,189.55,0,0,0-189.8-189.8Z"/></g></g></svg>