<svg xmlns="http://www.w3.org/2000/svg" viewBox="0 0 633.85 547.67"><g id="Layer_2" data-name="Layer 2"><g id="Layer_1-2" data-name="Layer 1"><path d="M317.07,115.3A144.17,144.17,0,0,1,461.19,259.42a139.87,139.87,0,0,1-10.37,52.75L535,396.34a340.61,340.61,0,0,0,98.86-136.92C584,132.88,460.91,43.24,316.78,43.24A335.69,335.69,0,0,0,202.06,63.41l62.26,62.27A139.92,139.92,0,0,1,317.07,115.3ZM28.82,36.61l65.72,65.72,13.26,13.26A340.26,340.26,0,0,0,0,259.42C49.87,386,173,475.61,317.07,475.61a339.32,339.32,0,0,0,126.25-24.22l12.11,12.11,84.46,84.17,36.6-36.61L65.43,0ZM188.23,196l44.67,44.68a81.32,81.32,0,0,0-2.3,18.73,86.36,86.36,0,0,0,86.47,86.48,81.48,81.48,0,0,0,18.74-2.31l44.68,44.68c-19.32,9.51-40.65,15.28-63.42,15.28A144.18,144.18,0,0,1,173,259.42C173,236.65,178.71,215.32,188.23,196Zm124.23-22.49,90.8,90.8.57-4.61a86.35,86.35,0,0,0-86.47-86.47Z"/></g></g></svg>