<svg xmlns="http://www.w3.org/2000/svg" viewBox="0 0 823.77 806.56"><defs><style>.cls-1{fill:#f04747;}</style></defs><g id="Layer_2" data-name="Layer 2"><g id="Layer_2-2" data-name="Layer 2"><g id="Layer_2-3" data-name="Layer 2"><g id="Layer_1-2" data-name="Layer 1-2"><path class="cls-1" d="M615.93,395.69A202.29,202.29,0,0,0,503.51,214.5v99.38l110.19,110A195.75,195.75,0,0,0,615.93,395.69Zm112.42,0a308.34,308.34,0,0,1-24.26,118.77L772,582.37a395.54,395.54,0,0,0,46.28-186.68A404.52,404.52,0,0,0,503.51,1.34V94A315,315,0,0,1,728.35,395.69ZM58.23,0,0,57,216.5,268.83H5.78V537.72H183.07l228.9,224V460.2L606.52,650.65a318.82,318.82,0,0,1-103,52.84v92.35a415.69,415.69,0,0,0,168.87-81.12l93.16,91.84,58.23-57L412,346.36ZM412,36l-94,94,94,94Z"/></g></g></g></g></svg>